<?xml version="1.0" encoding="UTF-8" standalone="no"?>
<!DOCTYPE svg PUBLIC "-//W3C//DTD SVG 1.1//EN" "http://www.w3.org/Graphics/SVG/1.1/DTD/svg11.dtd">
<svg width="75" height="75" viewBox="0 0 70 71" version="1.1" xmlns="http://www.w3.org/2000/svg" xmlns:xlink="http://www.w3.org/1999/xlink" xml:space="preserve" xmlns:serif="http://www.serif.com/" style="fill-rule:evenodd;clip-rule:evenodd;stroke-linejoin:round;stroke-miterlimit:2;">
    <g transform="matrix(1,0,0,1,-12.6744,-21.3421)">
        <g transform="matrix(0.934446,0,0,0.934446,-4.98659,15.9318)">
            <path d="M58.3,15.9C44.3,15.9 32.9,27.3 32.9,41.3C32.9,46.1 34.2,50.6 36.6,54.5L18.9,79.1L20.9,81.1L45.6,63.3C49.3,65.5 53.7,66.7 58.3,66.7C72.3,66.7 83.7,55.3 83.7,41.3C83.7,27.3 72.3,15.9 58.3,15.9ZM58.3,59.8C48.1,59.8 39.8,51.5 39.8,41.3C39.8,31.1 48.1,22.8 58.3,22.8C68.5,22.8 76.8,31.1 76.8,41.3C76.8,51.5 68.5,59.8 58.3,59.8Z" style="fill:rgb(194,42,39);fill-rule:nonzero;"/>
        </g>
        <g transform="matrix(1.39997,0,0,1.39997,-6.52686,-5.46227)">
            <path d="M23.575,40.874C23.486,41.678 23.099,42.26 22.415,42.623C21.73,42.985 20.859,43.108 19.802,42.99C18.752,42.873 17.937,42.565 17.357,42.066C16.777,41.567 16.532,40.912 16.622,40.101C16.711,39.298 17.095,38.711 17.772,38.339C18.449,37.968 19.312,37.84 20.362,37.957C21.411,38.074 22.232,38.389 22.823,38.901C23.414,39.414 23.664,40.071 23.575,40.874ZM22.335,40.736C22.374,40.379 22.181,40.124 21.756,39.972C21.33,39.82 20.799,39.708 20.163,39.638C19.527,39.567 18.984,39.559 18.536,39.613C18.087,39.668 17.842,39.874 17.803,40.232C17.763,40.59 17.944,40.84 18.347,40.981C18.75,41.122 19.25,41.226 19.846,41.293C20.577,41.374 21.165,41.391 21.609,41.344C22.053,41.297 22.295,41.094 22.335,40.736Z" style="fill-rule:nonzero;"/>
            <path d="M25.589,34.584C25.384,34.982 25.151,35.235 24.892,35.345C24.633,35.454 24.349,35.478 24.038,35.417L24.661,36.198L23.95,37.262L16.209,33.265L16.787,31.673L19.549,33.099C19.385,32.789 19.296,32.46 19.283,32.111C19.269,31.762 19.34,31.438 19.494,31.139C19.733,30.677 20.163,30.44 20.786,30.429C21.409,30.417 22.26,30.69 23.341,31.248C25.431,32.327 26.18,33.439 25.589,34.584ZM24.237,34.588C24.405,34.261 24.34,33.959 24.042,33.683C23.743,33.408 23.252,33.093 22.57,32.741C22.094,32.495 21.719,32.327 21.447,32.235C21.174,32.144 20.958,32.118 20.798,32.157C20.639,32.196 20.511,32.308 20.416,32.493C20.35,32.621 20.319,32.794 20.323,33.012C20.327,33.231 20.35,33.405 20.391,33.534L22.289,34.514C22.858,34.808 23.297,34.947 23.607,34.931C23.917,34.915 24.127,34.801 24.237,34.588Z" style="fill-rule:nonzero;"/>
            <path d="M28.709,30.62C28.126,31.168 27.462,31.355 26.718,31.182C25.973,31.009 25.24,30.537 24.517,29.768C23.783,28.986 23.357,28.217 23.239,27.461C23.121,26.705 23.363,26.044 23.963,25.48C24.535,24.943 25.188,24.763 25.924,24.939C26.66,25.115 27.395,25.593 28.129,26.374C28.173,26.421 28.195,26.463 28.197,26.5C28.199,26.537 28.202,26.558 28.208,26.564L25.873,28.757C26.229,29.136 26.603,29.435 26.995,29.654C27.387,29.873 27.685,29.887 27.889,29.695C28.117,29.481 28.162,29.191 28.027,28.825C27.891,28.458 27.821,28.266 27.816,28.249L29.071,27.728C29.343,28.263 29.459,28.778 29.418,29.271C29.377,29.765 29.141,30.215 28.709,30.62ZM26.388,26.94C26.059,26.59 25.752,26.357 25.467,26.24C25.182,26.124 24.941,26.159 24.743,26.345C24.643,26.438 24.594,26.578 24.594,26.765C24.593,26.952 24.646,27.16 24.752,27.389C24.858,27.619 25.01,27.839 25.207,28.049L26.388,26.94Z" style="fill-rule:nonzero;"/>
            <path d="M28.445,22.351L29.907,21.512L30.368,22.502C30.44,22.089 30.593,21.711 30.827,21.368C31.06,21.026 31.427,20.738 31.927,20.505L32.621,21.996C32.36,22.117 32.038,22.322 31.656,22.61C31.274,22.898 31.008,23.214 30.859,23.557L32.727,27.572L31.265,28.411L28.445,22.351Z" style="fill-rule:nonzero;"/>
            <path d="M34.781,19.812L36.432,19.47L36.534,20.328C36.84,19.986 37.147,19.713 37.458,19.511C37.768,19.309 38.062,19.191 38.34,19.158C38.761,19.108 39.123,19.22 39.426,19.494C39.728,19.768 39.91,20.163 39.972,20.68L40.571,25.708L38.92,26.05L38.379,21.51C38.308,20.914 38.07,20.64 37.665,20.689C37.53,20.705 37.385,20.762 37.232,20.861C37.079,20.96 36.884,21.1 36.648,21.281L37.223,26.107L35.572,26.449L34.781,19.812Z" style="fill-rule:nonzero;"/>
            <path d="M43.965,26.575C43.187,26.388 42.667,25.935 42.403,25.218C42.14,24.5 42.132,23.628 42.38,22.601C42.631,21.559 43.04,20.782 43.609,20.268C44.177,19.755 44.861,19.595 45.662,19.788C46.424,19.972 46.934,20.42 47.19,21.131C47.446,21.843 47.449,22.72 47.198,23.762C47.183,23.825 47.16,23.867 47.131,23.888C47.101,23.91 47.085,23.924 47.083,23.932L43.968,23.182C43.846,23.687 43.801,24.164 43.833,24.612C43.865,25.06 44.017,25.317 44.289,25.382C44.593,25.455 44.86,25.335 45.093,25.02C45.325,24.706 45.447,24.542 45.458,24.528L46.582,25.293C46.284,25.813 45.917,26.192 45.481,26.429C45.046,26.665 44.54,26.714 43.965,26.575ZM45.771,22.616C45.883,22.15 45.91,21.765 45.851,21.463C45.792,21.161 45.631,20.978 45.366,20.914C45.234,20.882 45.09,20.917 44.933,21.02C44.777,21.122 44.632,21.28 44.498,21.495C44.364,21.709 44.263,21.957 44.196,22.237L45.771,22.616Z" style="fill-rule:nonzero;"/>
            <path d="M50.955,21.881L52.431,22.696L51.95,23.414C52.405,23.353 52.816,23.346 53.183,23.394C53.551,23.443 53.85,23.545 54.083,23.701C54.436,23.936 54.637,24.257 54.689,24.662C54.74,25.067 54.621,25.486 54.332,25.918L51.515,30.126L50.039,29.311L52.582,25.512C52.916,25.013 52.913,24.65 52.574,24.423C52.461,24.348 52.314,24.298 52.133,24.273C51.953,24.248 51.714,24.228 51.416,24.212L48.713,28.251L47.237,27.436L50.955,21.881Z" style="fill-rule:nonzero;"/>
            <path d="M53.662,33.103C53.325,32.676 53.148,32.23 53.131,31.764C53.114,31.298 53.382,30.846 53.934,30.409L56.861,28.094L56.281,27.36L57.323,26.628L57.889,27.343L59.141,26.567L60.209,27.588L58.901,28.623L59.764,29.715L58.722,30.447L57.911,29.422L54.993,31.729C54.805,31.878 54.707,32.032 54.7,32.19C54.693,32.349 54.761,32.519 54.905,32.701C54.984,32.802 55.137,32.956 55.364,33.165L54.451,33.887C54.424,33.867 54.327,33.783 54.16,33.635C53.992,33.487 53.826,33.31 53.662,33.103Z" style="fill-rule:nonzero;"/>
            <path d="M55.528,36.649C55.236,35.905 55.308,35.219 55.745,34.592C56.182,33.965 56.892,33.458 57.874,33.072C58.872,32.68 59.744,32.569 60.49,32.74C61.237,32.911 61.76,33.38 62.062,34.147C62.348,34.877 62.273,35.551 61.837,36.169C61.401,36.788 60.684,37.293 59.687,37.685C59.627,37.708 59.58,37.714 59.545,37.702C59.51,37.69 59.489,37.685 59.481,37.688L58.31,34.706C57.826,34.896 57.41,35.132 57.061,35.416C56.712,35.699 56.589,35.97 56.692,36.231C56.806,36.521 57.058,36.672 57.449,36.681C57.839,36.691 58.044,36.697 58.061,36.699L58.08,38.058C57.482,38.112 56.962,38.029 56.518,37.808C56.075,37.587 55.745,37.2 55.528,36.649ZM59.807,35.858C60.254,35.683 60.584,35.484 60.798,35.263C61.012,35.041 61.069,34.804 60.969,34.551C60.92,34.424 60.808,34.326 60.635,34.257C60.461,34.187 60.248,34.159 59.996,34.172C59.743,34.186 59.483,34.245 59.215,34.35L59.807,35.858Z" style="fill-rule:nonzero;"/>
            <path d="M63.301,39.479L63.535,41.149L62.445,41.208C62.801,41.429 63.095,41.711 63.326,42.056C63.557,42.4 63.687,42.847 63.717,43.398L62.075,43.487C62.059,43.199 61.989,42.825 61.864,42.363C61.739,41.901 61.545,41.537 61.282,41.27L56.861,41.509L56.627,39.839L63.301,39.479Z" style="fill-rule:nonzero;"/>
        </g>
    </g>
</svg>
