<?xml version="1.0" encoding="UTF-8" standalone="no"?>
<!DOCTYPE svg PUBLIC "-//W3C//DTD SVG 1.1//EN" "http://www.w3.org/Graphics/SVG/1.1/DTD/svg11.dtd">
<svg width="75" height="75" viewBox="0 0 70 71" version="1.1" xmlns="http://www.w3.org/2000/svg" xmlns:xlink="http://www.w3.org/1999/xlink" xml:space="preserve" xmlns:serif="http://www.serif.com/" style="fill-rule:evenodd;clip-rule:evenodd;stroke-linejoin:round;stroke-miterlimit:2;">
    <g transform="matrix(1,0,0,1,-9.49047,-18.3582)">
        <g transform="matrix(0.945683,0,0,0.945683,-8.38293,12.3174)">
            <path d="M58.3,15.9C44.3,15.9 32.9,27.3 32.9,41.3C32.9,46.1 34.2,50.6 36.6,54.5L18.9,79.1L20.9,81.1L45.6,63.3C49.3,65.5 53.7,66.7 58.3,66.7C72.3,66.7 83.7,55.3 83.7,41.3C83.7,27.3 72.3,15.9 58.3,15.9ZM58.3,59.8C48.1,59.8 39.8,51.5 39.8,41.3C39.8,31.1 48.1,22.8 58.3,22.8C68.5,22.8 76.8,31.1 76.8,41.3C76.8,51.5 68.5,59.8 58.3,59.8Z" style="fill:rgb(194,42,39);fill-rule:nonzero;"/>
        </g>
        <g transform="matrix(1.4168,0,0,1.4168,-9.94173,-9.33392)">
            <path d="M22.328,43.509C22.377,44.612 21.602,45.284 20.319,45.341L20.223,45.345C18.928,45.402 18.119,44.777 18.071,43.698C18.023,42.619 18.786,41.936 20.081,41.878L20.165,41.874C21.448,41.817 22.28,42.429 22.328,43.509ZM23.454,43.471C23.372,41.624 22.042,40.303 20.087,40.39L19.991,40.394C18.072,40.479 16.852,41.914 16.933,43.748C17.015,45.595 18.37,46.915 20.313,46.829L20.409,46.825C22.315,46.74 23.536,45.318 23.454,43.471Z" style="fill-rule:nonzero;"/>
            <path d="M24.927,35.819C25.568,34.33 24.905,32.779 23.053,31.982L22.965,31.944C21.101,31.141 19.555,31.794 18.933,33.238C18.567,34.087 18.754,35.017 19.167,35.574L15.575,34.027L15.001,35.36L23.432,38.989L24.005,37.657L23.081,37.259C23.797,37.201 24.533,36.734 24.927,35.819ZM23.728,35.695C23.311,36.665 22.434,37.032 21.144,36.477L21.055,36.439C19.776,35.888 19.433,34.956 19.831,34.03C20.206,33.159 21.12,32.768 22.399,33.318L22.487,33.356C23.722,33.888 24.151,34.713 23.728,35.695Z" style="fill-rule:nonzero;"/>
            <path d="M28.844,30.444C30.021,29.348 30.312,28.095 29.562,26.99L28.535,27.945C28.874,28.467 28.777,29.033 28.136,29.63C27.345,30.367 26.447,30.283 25.602,29.446L28.966,26.314L28.68,26.007C27.151,24.365 25.495,24.645 24.353,25.708C23.044,26.927 22.952,28.781 24.277,30.204L24.342,30.275C25.692,31.725 27.491,31.704 28.844,30.444ZM24.958,28.719C24.401,27.909 24.43,27.077 25.072,26.48C25.731,25.867 26.462,25.842 27.252,26.584L24.958,28.719Z" style="fill-rule:nonzero;"/>
            <path d="M32.037,27.908L33.376,27.351L32.122,24.338C31.61,23.107 32.163,22.436 33.332,21.936L32.812,20.685C31.842,21.102 31.478,21.759 31.417,22.642L30.965,21.558L29.626,22.115L32.037,27.908Z" style="fill-rule:nonzero;"/>
            <path d="M36.376,26.129L37.824,26.054L37.631,22.363C37.579,21.368 38.212,20.83 39.027,20.788C39.891,20.742 40.297,21.154 40.346,22.1L40.546,25.911L41.994,25.835L41.788,21.893C41.698,20.168 40.774,19.484 39.516,19.55C38.484,19.604 37.816,20.155 37.548,20.781L37.496,19.788L36.048,19.864L36.376,26.129Z" style="fill-rule:nonzero;"/>
            <path d="M46.134,27.219C47.637,27.793 48.89,27.502 49.552,26.342L48.242,25.841C47.922,26.375 47.372,26.537 46.553,26.224C45.544,25.838 45.223,24.996 45.603,23.868L49.896,25.509L50.046,25.117C50.847,23.021 49.866,21.658 48.408,21.101C46.738,20.462 45.033,21.197 44.338,23.013L44.304,23.102C43.597,24.953 44.408,26.559 46.134,27.219ZM45.972,22.97C46.454,22.113 47.213,21.773 48.032,22.086C48.873,22.408 49.217,23.054 48.899,24.089L45.972,22.97Z" style="fill-rule:nonzero;"/>
            <path d="M49.91,28.865L50.937,29.889L53.546,27.272C54.25,26.567 55.073,26.676 55.651,27.253C56.264,27.863 56.231,28.44 55.561,29.111L52.867,31.814L53.894,32.838L56.682,30.042C57.901,28.819 57.789,27.675 56.897,26.785C56.166,26.056 55.309,25.929 54.665,26.15L55.367,25.446L54.34,24.422L49.91,28.865Z" style="fill-rule:nonzero;"/>
            <path d="M55.44,36.242C55.634,36.642 55.835,36.891 56.01,37.059L57.045,36.556C56.88,36.41 56.753,36.231 56.627,35.972C56.428,35.562 56.54,35.214 57.036,34.973L60.005,33.53L60.609,34.771L61.589,34.295L60.986,33.054L62.228,32.45L61.594,31.146L60.352,31.749L59.985,30.993L59.004,31.47L59.372,32.226L56.284,33.726C55.215,34.245 54.895,35.121 55.44,36.242Z" style="fill-rule:nonzero;"/>
            <path d="M56.62,40.97C56.8,42.568 57.634,43.547 58.969,43.602L58.812,42.208C58.191,42.17 57.794,41.755 57.695,40.884C57.574,39.811 58.175,39.139 59.351,38.958L59.867,43.525L60.283,43.478C62.514,43.226 63.273,41.729 63.098,40.178C62.898,38.401 61.462,37.224 59.53,37.442L59.435,37.452C57.466,37.675 56.412,39.133 56.62,40.97ZM60.318,38.873C61.301,38.907 61.952,39.425 62.05,40.296C62.151,41.191 61.736,41.794 60.67,41.986L60.318,38.873Z" style="fill-rule:nonzero;"/>
            <path d="M56.759,45.056L56.411,46.464L59.578,47.249C60.872,47.569 61.084,48.412 60.79,49.65L62.104,49.976C62.347,48.948 62.034,48.264 61.361,47.69L62.501,47.972L62.85,46.564L56.759,45.056Z" style="fill-rule:nonzero;"/>
        </g>
    </g>
</svg>
