<?xml version="1.0" encoding="UTF-8" standalone="no"?>
<!DOCTYPE svg PUBLIC "-//W3C//DTD SVG 1.1//EN" "http://www.w3.org/Graphics/SVG/1.1/DTD/svg11.dtd">
<svg width="20" height="20" viewBox="0 0 16 16" version="1.1" xmlns="http://www.w3.org/2000/svg" xmlns:xlink="http://www.w3.org/1999/xlink" xml:space="preserve" xmlns:serif="http://www.serif.com/" style="fill-rule:evenodd;clip-rule:evenodd;stroke-linejoin:round;stroke-miterlimit:2;">
    <g id="bi:exclamation-circle-fill">
        <g id="Group">
            <path id="Vector" d="M16,8C16,10.122 15.157,12.157 13.657,13.657C12.157,15.157 10.122,16 8,16C5.878,16 3.843,15.157 2.343,13.657C0.843,12.157 0,10.122 0,8C0,5.878 0.843,3.843 2.343,2.343C3.843,0.843 5.878,0 8,0C10.122,0 12.157,0.843 13.657,2.343C15.157,3.843 16,5.878 16,8ZM8,4C7.874,4 7.749,4.027 7.633,4.078C7.518,4.129 7.414,4.204 7.329,4.298C7.245,4.392 7.18,4.502 7.141,4.622C7.101,4.742 7.087,4.869 7.1,4.995L7.45,8.502C7.462,8.64 7.525,8.768 7.627,8.862C7.728,8.955 7.862,9.007 8,9.007C8.138,9.007 8.272,8.955 8.373,8.862C8.475,8.768 8.538,8.64 8.55,8.502L8.9,4.995C8.913,4.869 8.899,4.742 8.859,4.622C8.82,4.502 8.755,4.392 8.671,4.298C8.586,4.204 8.482,4.129 8.367,4.078C8.251,4.027 8.126,4 8,4ZM8.002,10C7.737,10 7.482,10.105 7.295,10.293C7.107,10.48 7.002,10.735 7.002,11C7.002,11.265 7.107,11.52 7.295,11.707C7.482,11.895 7.737,12 8.002,12C8.267,12 8.522,11.895 8.709,11.707C8.897,11.52 9.002,11.265 9.002,11C9.002,10.735 8.897,10.48 8.709,10.293C8.522,10.105 8.267,10 8.002,10Z" style="fill:rgb(194,42,39);fill-rule:nonzero;"/>
        </g>
    </g>
</svg>
